<svg id="Capa_1" enable-background="new 0 0 512.002 512.002" height="512" viewBox="0 0 512.002 512.002" width="512" xmlns="http://www.w3.org/2000/svg"><g><g><path d="m467.971 180.063c-28.394-28.393-66.027-44.03-105.97-44.03h-222.001v-39.896c0-8.027-4.621-15.063-12.061-18.362-7.451-3.305-16.115-2.005-22.165 3.301l-98.296 79.307c-4.797 3.875-7.522 9.601-7.478 15.71.044 6.096 2.832 11.771 7.653 15.582l98.758 79.681c6.267 5.061 14.696 6.035 22.004 2.541 7.149-3.418 11.589-10.362 11.584-18.117v-39.746h61.004c5.522 0 10-4.477 10-10s-4.478-10-10-10h-71.003c-5.522 0-10 4.477-10 10v49.685c-.094.083-.291.199-.528.231-.195.026-.314-.009-.496-.156l-98.806-79.719c-.036-.029-.091-.102-.128-.13l98.476-79.452c.148-.12.293-.243.435-.371.111-.103.213-.179.48-.162.248.016.462.116.567.193v49.881c0 5.523 4.478 10 10 10h232.002c34.6 0 67.212 13.557 91.827 38.172 24.616 24.617 38.173 57.229 38.173 91.828 0 34.6-13.557 67.212-38.173 91.828s-57.228 38.173-91.827 38.173h-167c-2.71 0-5-2.29-5-5v-30c0-2.71 2.29-5 5-5h167c23.921 0 46.489-9.394 63.548-26.453 17.058-17.059 26.452-39.626 26.452-63.547s-9.395-46.489-26.452-63.548c-17.059-17.058-39.627-26.452-63.548-26.452h-70.998c-5.522 0-10 4.477-10 10s4.478 10 10 10h70.998c18.578 0 36.124 7.314 49.405 20.594 13.28 13.281 20.595 30.827 20.595 49.406s-7.314 36.125-20.595 49.405-30.826 20.595-49.405 20.595h-167c-13.785 0-25 11.215-25 25v30c0 13.785 11.215 25 25 25h167c39.941 0 77.575-15.637 105.97-44.03 28.394-28.394 44.03-66.028 44.03-105.97 0-39.943-15.637-77.578-44.031-105.972z"/><path d="m246.007 216.033c5.522 0 9.996-4.477 9.996-10s-4.48-10-10.003-10-10 4.477-10 10 4.478 10 10 10z"/></g></g></svg>