<svg id="Capa_1" enable-background="new 0 0 507.953 507.953" height="512" viewBox="0 0 507.953 507.953" width="512" xmlns="http://www.w3.org/2000/svg"><g><g><path d="m474.821 327.872h23.132v-147.791h-290.28v147.791h187.221" fill="#fff"/><path d="m207.673 180.081v147.791c-65.891 0-131.782 0-197.673 0 0-49.264 0-98.528 0-147.791z" fill="#ffee80"/></g><g><path d="m444.39 324.048c-2.065-5.043-8.027-7.484-13.05-5.41-5.036 2.079-7.498 8.028-5.41 13.061 2.087 5.032 8.016 7.489 13.05 5.41 5.03-2.078 7.501-8.036 5.41-13.061z"/><path d="m394.894 337.872c12.84 0 12.858-20 0-20h-177.221v-127.791h270.28v127.791h-13.132c-5.522 0-10 4.478-10 10s4.478 10 10 10h23.132c5.522 0 10-4.478 10-10v-147.791c0-5.523-4.478-10-10-10h-487.953c-5.522 0-10 4.477-10 10v147.791c0 5.522 4.478 10 10 10zm-197.221-20h-177.673v-127.791h177.673z"/></g></g></svg>